# xmcd
#
# Track frame offsets:
#  150
#  41295
#  96382
#  131480
#  182345
#  197867
#  223260
#  269087
#
# Disc length: 3844 seconds
#
# Revision: 0
# Processed by: cddbd v1.5.1PL2 Copyright (c) Steve Scherf et al.
# Submitted via: Collectorz.com_Music_Collector 6.11
#
DISCID=780f0208
DTITLE=Dvorak, Antonin - The Best of Dvorak
DYEAR=1994
DGENRE=Classical
TTITLE0=Symphony No. 9 "From the New World" op. 95: I. Adagio - Allegro molto
TTITLE1=Symphony No. 9 "From the New World" op. 95: II. Largo
TTITLE2=Symphony No. 9 "From the New World" op. 95: III. Scherzo: Molto vivace
TTITLE3=Symphony No. 9 "From the New World" op. 95: IV. Finale: Allegro con fuoco
TTITLE4=Slavonic Dances: No. 1 in C major, op. 46 Furiant (Presto)
TTITLE5=Slavonic Dances: No. 2 in E minor, op. 72 Dumka (Allegretto scherzando)
TTITLE6=From Symphony No. 8 op. 88: Allegro con brio
TTITLE7=Humoresque in G flat, op. 101 No. 7
EXTD=
EXTT0=
EXTT1=
EXTT2=
EXTT3=
EXTT4=
EXTT5=
EXTT6=
EXTT7=
PLAYORDER=
